<svg xmlns="http://www.w3.org/2000/svg" width="114.781" height="26.585" xmlns:v="https://vecta.io/nano"><path d="M12.975 7.613c-.507 2.364-2.4 4.045-5.98 4.045-4.14 0-6.218-2.649-6.218-5.837C.777 2.76 2.823 0 7.138 0c3.791 0 5.568 1.967 5.853 3.981H9.343a2.01 2.01 0 0 0-2.222-1.523c-1.7 0-2.522 1.333-2.522 3.284 0 1.776.666 3.426 2.538 3.426 1.028.122 1.984-.547 2.221-1.555zm14.02-1.808c0 3.141-2.094 5.853-6.472 5.853-4.028 0-6.249-2.57-6.249-5.837C14.274 2.744 16.431 0 20.682 0c4.029 0 6.313 2.633 6.313 5.805zm-8.9-.047c0 1.951.777 3.378 2.6 3.378 1.888 0 2.475-1.634 2.475-3.315 0-1.935-.682-3.363-2.57-3.363-1.79 0-2.503 1.475-2.503 3.3zm21.35 1.887l.127-5.218h-.032l-2.379 8.978h-2.967l-2.157-9.009h-.032l.207 5.377v3.633h-3.236V.254h5.187l1.744 7.122h.016L37.811.254h5.171v11.15h-3.537zM45.614.254h6.265c2.681 0 4.555 1.334 4.555 3.634 0 2.364-1.761 3.727-4.536 3.727h-2.684v3.791h-3.6zm3.6 4.917h2.11c.968 0 1.539-.4 1.539-1.253 0-.714-.428-1.222-1.539-1.222h-2.11zM58.08.254h3.633v8.565h5.98l-.428 2.585H58.08zm12.022 11.15v-3.87a.65.65 0 0 0-.159-.428L65.455.254h4.251l2.379 4.473c.539-1.142 1.522-2.791 2.427-4.473h3.9l-4.585 6.963a.62.62 0 0 0-.079.38v3.807zM4.347 24.254l-.714 2.076H0l4.219-11.15h4.727l4.488 11.15H9.549l-.761-2.078zm3.6-2.585l-1.428-4.2h-.063c-.238.92-.73 2.506-1.333 4.2zm6.692-6.488h5.644c4.028 0 6.059 2.458 6.059 5.393 0 3.442-2.522 5.758-6.091 5.758h-5.612zm3.617 8.649h1.57c1.792 0 2.7-1.079 2.7-3.172 0-1.713-.714-2.966-2.7-2.982h-1.57zm12.828 2.5l-4.345-11.15h3.949l1.634 5a35.86 35.86 0 0 1 1.03 3.6h.032c.315-1.272.696-2.527 1.142-3.759l1.523-4.838h3.886L35.512 26.33zm11.945-2.076l-.712 2.076h-3.634l4.219-11.15h4.727l4.488 11.15h-3.886l-.761-2.078zm3.6-2.585l-1.428-4.2h-.063c-.238.92-.73 2.506-1.333 4.2zm6.693 4.661V15.181h4.22l4.029 6.883h.063c-.111-1.062-.095-3.077-.095-4.917v-1.966h3.251V26.33h-3.981l-4.283-7.661h-.047c.1 1.269.111 2.76.111 4.949v2.712zm16.712-8.58h-3.7v-2.569h10.977v2.569h-3.657v8.58h-3.62zm10.552 6.504l-.711 2.076h-3.633l4.219-11.15h4.727l4.487 11.15h-3.886l-.762-2.078zm3.6-2.585l-1.428-4.2h-.063c-.238.92-.73 2.506-1.332 4.2zm18.033 4.662h-2.49c-.097-.333-.171-.673-.222-1.016-.714.793-1.65 1.269-3.7 1.269-1.547.104-3.063-.467-4.157-1.564s-1.661-2.615-1.553-4.162c0-3.172 2.015-5.932 6.408-5.932 3.537 0 5.393 1.792 5.726 3.664h-3.625c-.306-.877-1.19-1.415-2.11-1.284-1.887 0-2.569 1.555-2.569 3.363 0 1.967.777 3.473 2.649 3.473 1.586 0 2.157-.9 2.157-1.76v-.112h-2.189v-2.442h5.678zm11.864-4.441h-5.964v1.872h6.662l-.413 2.568h-9.82V15.181h9.85v2.569h-6.281v1.555h5.964z"/></svg>